<svg width="439" height="439" viewBox="0 0 439 439" fill="none" xmlns="http://www.w3.org/2000/svg">
<path d="M332.253 374.047C321.499 371.728 336.783 336.304 343.216 328.652C349.649 321 350.757 330.417 350.757 330.417C350.757 330.417 368.945 302.971 379.122 299.424C389.3 295.877 384.028 306.501 384.028 306.501C384.028 306.501 410.271 285.973 422.573 294.444C434.875 302.915 400.107 319.707 400.107 319.707C400.107 319.707 410.865 317.646 413.187 323.592C415.509 329.537 373.521 345.937 373.521 345.937C373.521 345.937 383.487 345.684 385.664 351.258C387.841 356.832 348.855 377.626 332.253 374.047Z" fill="#242424"/>
<path d="M416.159 299.964C416.159 299.964 368.998 322.889 333.15 369.078" stroke="#8E8E8E" stroke-width="2" stroke-miterlimit="10" stroke-linecap="round" stroke-linejoin="round"/>
<path d="M396.02 327.31C396.02 327.31 378.623 331.357 365.479 335.007C365.479 335.007 371.811 317.685 377.821 308.4" stroke="#8E8E8E" stroke-width="2" stroke-miterlimit="10" stroke-linecap="round" stroke-linejoin="round"/>
<path d="M364.242 355.847L338.624 362.302C338.624 362.302 340.648 346.019 344.474 336.568" stroke="#8E8E8E" stroke-width="2" stroke-miterlimit="10" stroke-linecap="round" stroke-linejoin="round"/>
<path d="M308.139 372.212C292.031 373.059 300.06 317.062 306.226 303.765C312.392 290.467 317.576 303.368 317.576 303.368C317.576 303.368 332.777 257.547 345.818 248.62C358.858 239.694 355.477 256.752 355.477 256.752C355.477 256.752 384.732 217.629 405.393 224.893C426.054 232.158 383.299 269.268 383.299 269.268C383.299 269.268 397.732 262.222 403.3 269.743C408.868 277.265 355.747 316.591 355.747 316.591C355.747 316.591 369.752 312.408 374.973 319.46C380.193 326.511 333.006 370.905 308.139 372.212Z" fill="#8E8E8E"/>
<path d="M398.435 235.167C398.435 235.167 340.499 285.713 307.501 364.836" stroke="#242424" stroke-width="2" stroke-miterlimit="10" stroke-linecap="round" stroke-linejoin="round"/>
<path d="M380.434 281.596C380.434 281.596 357.369 294 340.17 304.211C340.17 304.211 342.481 277.269 347.421 261.821" stroke="#242424" stroke-width="2" stroke-miterlimit="10" stroke-linecap="round" stroke-linejoin="round"/>
<path d="M346.421 334.177L312.646 353.146C312.646 353.146 309.259 329.327 311.046 314.484" stroke="#242424" stroke-width="2" stroke-miterlimit="10" stroke-linecap="round" stroke-linejoin="round"/>
<path d="M106.748 374.047C117.501 371.728 102.218 336.304 95.7848 328.652C89.3518 321 88.2432 330.417 88.2432 330.417C88.2432 330.417 70.0558 302.971 59.8782 299.424C49.7006 295.877 54.9726 306.501 54.9726 306.501C54.9726 306.501 28.73 285.973 16.4279 294.444C4.12579 302.915 38.894 319.707 38.894 319.707C38.894 319.707 28.1359 317.646 25.8138 323.592C23.4917 329.537 65.4794 345.937 65.4794 345.937C65.4794 345.937 55.5139 345.684 53.3369 351.258C51.1599 356.832 90.1462 377.626 106.748 374.047Z" fill="#F4C42B"/>
<path d="M22.8428 299.964C22.8428 299.964 70.0028 322.889 105.851 369.078" stroke="white" stroke-width="1.5" stroke-miterlimit="10" stroke-linecap="round" stroke-linejoin="round"/>
<path d="M42.9814 327.31C42.9814 327.31 60.378 331.357 73.5219 335.007C73.5219 335.007 67.1901 317.685 61.18 308.4" stroke="white" stroke-width="1.5" stroke-miterlimit="10" stroke-linecap="round" stroke-linejoin="round"/>
<path d="M74.7588 355.847L100.377 362.302C100.377 362.302 98.3533 346.019 94.5268 336.568" stroke="white" stroke-width="1.5" stroke-miterlimit="10" stroke-linecap="round" stroke-linejoin="round"/>
<path d="M130.862 372.212C146.97 373.059 138.941 317.062 132.775 303.765C126.608 290.467 121.425 303.368 121.425 303.368C121.425 303.368 106.224 257.547 93.1828 248.62C80.142 239.694 83.5239 256.752 83.5239 256.752C83.5239 256.752 54.2681 217.629 33.6074 224.893C12.9467 232.158 55.7015 269.268 55.7015 269.268C55.7015 269.268 41.2687 262.222 35.7004 269.743C30.1321 277.265 83.2537 316.591 83.2537 316.591C83.2537 316.591 69.2482 312.408 64.0279 319.46C58.8077 326.511 105.995 370.905 130.862 372.212Z" fill="#8E8E8E"/>
<path d="M40.5654 235.167C40.5654 235.167 98.5015 285.713 131.499 364.836" stroke="#242424" stroke-width="2" stroke-miterlimit="10" stroke-linecap="round" stroke-linejoin="round"/>
<path d="M58.5664 281.596C58.5664 281.596 81.6311 294 98.83 304.211C98.83 304.211 96.5192 277.269 91.5789 261.821" stroke="#242424" stroke-width="2" stroke-miterlimit="10" stroke-linecap="round" stroke-linejoin="round"/>
<path d="M92.5801 334.177L126.355 353.146C126.355 353.146 129.742 329.327 127.955 314.484" stroke="#242424" stroke-width="2" stroke-miterlimit="10" stroke-linecap="round" stroke-linejoin="round"/>
<path d="M397.755 194.855V162.771C397.755 159.45 395.063 156.757 391.741 156.757H338.644C335.322 156.757 332.63 159.45 332.63 162.771V181.553L326.44 187.743C325.781 188.402 326.249 189.528 327.179 189.528H332.63V194.855C332.63 198.177 335.322 200.869 338.644 200.869H391.741C395.063 200.869 397.755 198.177 397.755 194.855Z" fill="#8E8E8E"/>
<path d="M384.005 175.367H349.581C347.96 175.367 346.646 174.053 346.646 172.433V172.433C346.646 170.812 347.96 169.498 349.581 169.498H384.005C385.625 169.498 386.939 170.812 386.939 172.433V172.433C386.939 174.053 385.625 175.367 384.005 175.367Z" fill="white"/>
<path d="M369.27 188.128H349.581C347.96 188.128 346.646 186.814 346.646 185.193C346.646 183.573 347.96 182.259 349.581 182.259H369.27C370.89 182.259 372.204 183.573 372.204 185.193C372.204 186.814 370.89 188.128 369.27 188.128Z" fill="white"/>
<path d="M273.398 92.7039V124.787C273.398 128.109 270.705 130.802 267.384 130.802H214.286C210.965 130.802 208.272 128.109 208.272 124.787V106.006L202.082 99.8157C201.424 99.1572 201.892 98.0304 202.821 98.0304H208.272V92.7039C208.272 89.3821 210.965 86.6896 214.286 86.6896H267.384C270.705 86.6896 273.398 89.3821 273.398 92.7039Z" fill="#8E8E8E"/>
<path d="M259.647 105.3H225.223C223.603 105.3 222.289 103.986 222.289 102.365C222.289 100.745 223.603 99.431 225.223 99.431H259.647C261.268 99.431 262.581 100.745 262.581 102.365C262.581 103.986 261.268 105.3 259.647 105.3Z" fill="white"/>
<path d="M244.912 118.06H225.223C223.603 118.06 222.289 116.747 222.289 115.126C222.289 113.505 223.603 112.192 225.223 112.192H244.912C246.533 112.192 247.847 113.505 247.847 115.126C247.847 116.747 246.533 118.06 244.912 118.06Z" fill="white"/>
<path d="M123.427 171.279C158.74 171.279 187.367 142.652 187.367 107.339C187.367 72.0262 158.74 43.3993 123.427 43.3993C88.1142 43.3993 59.4873 72.0262 59.4873 107.339C59.4873 142.652 88.1142 171.279 123.427 171.279Z" fill="#3D3D3D"/>
<path d="M122.536 86.9662L122.355 85.1545L123.417 85.3151L131.906 74.945C132.394 74.3498 133.271 74.2623 133.866 74.7495L152.065 89.6471L153.587 89.8773L153.665 91.1841L153.665 91.1841C153.85 91.6408 153.792 92.1794 153.458 92.5874L144.397 103.657C143.909 104.253 143.032 104.34 142.437 103.853L123.04 87.9747C122.723 87.7153 122.555 87.3452 122.536 86.9662Z" fill="#F4C42B"/>
<path d="M144.546 101.451L152.949 91.1859C153.619 90.3685 153.498 89.1636 152.681 88.4946L134.089 73.2749C133.271 72.6059 132.066 72.7261 131.397 73.5434L122.994 83.8088C122.325 84.6261 122.445 85.831 123.263 86.5001L141.855 101.72C142.672 102.389 143.877 102.269 144.546 101.451Z" fill="#242424"/>
<path d="M143.628 99.9742L151.319 90.578C151.52 90.3332 151.484 89.9723 151.239 89.7718L133.121 74.9401C132.876 74.7397 132.515 74.7757 132.314 75.0206L124.623 84.4168C124.422 84.6616 124.458 85.0225 124.703 85.2229L142.822 100.055C143.066 100.255 143.427 100.219 143.628 99.9742Z" fill="#8E8E8E"/>
<path d="M138.862 75.791C134.409 76.5362 136.064 79.885 138.827 79.9301C138.827 79.9301 136.815 80.9535 138.195 82.7151C139.574 84.4767 143.938 83.8224 144.923 84.2652C144.923 84.2652 141.22 83.6393 141.798 86.1773C142.375 88.7154 148.045 88.4558 148.045 88.4558C148.045 88.4558 144.733 88.6898 145.179 90.7882C145.625 92.8867 149.399 93.1083 149.399 93.1083C149.399 93.1083 148.869 96.1403 150.085 98.1233C151.301 100.106 154.673 99.4037 154.673 99.4037L156.63 105.016C156.63 105.016 159.19 106.338 161.899 105.144C164.607 103.951 164.126 100.742 164.126 100.742L159.887 95.6692C159.887 95.6692 155.146 82.8636 153.66 80.3961C152.175 77.9286 146.416 74.5272 138.862 75.791Z" fill="white"/>
<path d="M139.88 79.6946C139.88 79.6946 145.4 78.8105 149.66 80.274" stroke="#242424" stroke-width="1.5" stroke-miterlimit="10" stroke-linecap="round" stroke-linejoin="round"/>
<path d="M146.052 84.3019C146.052 84.3019 149.529 84.3516 151.746 84.7397" stroke="#242424" stroke-width="1.5" stroke-miterlimit="10" stroke-linecap="round" stroke-linejoin="round"/>
<path d="M148.898 88.518C148.898 88.518 151.032 88.4446 153.127 89.0246" stroke="#242424" stroke-width="1.5" stroke-miterlimit="10" stroke-linecap="round" stroke-linejoin="round"/>
<path d="M183.813 159.192C160.697 180.005 130.765 137.074 125.607 125.704C120.448 114.329 121.634 101.316 137.167 107.339C147.504 111.348 162.196 128.994 162.595 129.678L155.8 111.313L154.027 106.53C154.027 106.53 153.707 103.104 157.982 100.89C162.261 98.6748 164.992 98.9602 164.992 98.9602C164.992 98.9602 166.578 100.516 168.953 103.172C178.665 114.01 201.622 143.161 183.813 159.192Z" fill="#F4C42B"/>
<path d="M163.191 130.498C163.191 130.498 170.727 141.067 173.412 148.73" stroke="white" stroke-width="1.45635" stroke-miterlimit="10" stroke-linecap="round" stroke-linejoin="round"/>
<path d="M168.953 103.172C159.097 104.343 156.453 109.415 155.8 111.313L154.027 106.53C154.027 106.53 153.707 103.104 157.981 100.89C162.261 98.6748 164.992 98.9602 164.992 98.9602C164.992 98.9602 166.577 100.516 168.953 103.172Z" fill="#8E8E8E"/>
<path d="M134.966 62.6543C134.966 62.6543 134.899 62.5241 134.757 62.2986C133.756 60.7058 129.013 54.3595 117.612 55.5645C104.596 56.9401 99.5167 72.8128 103.538 79.3734C107.559 85.9341 100.046 88.897 92.2153 92.1774C84.3848 95.4577 78.1416 106.145 85.5488 115.775C92.9561 125.404 130.733 127.626 133.167 116.198C135.6 104.77 127.876 95.5635 128.828 86.3574L134.966 62.6543Z" fill="#242424"/>
<path d="M127.359 87.9489L126.149 94.1455L124.921 100.427L118.36 99.5803L119.495 87.5764L119.842 83.9193L127.359 87.9489Z" fill="white"/>
<path d="M127.359 87.9489L126.149 94.1455C122.229 93.6376 120.375 90.4207 119.495 87.5764L119.842 83.9193L127.359 87.9489Z" fill="#242424"/>
<path d="M105.725 96.9692L107.841 106.387L133.766 107.339L136.729 98.2391C120.962 90.5144 105.725 96.9692 105.725 96.9692Z" fill="#F4C42B"/>
<path d="M153.871 163.58C155.353 157.428 158.057 145.565 158.21 140.354C158.422 133.159 149.11 118.556 149.11 118.556C149.11 118.556 138.528 103.953 120.328 103.53C102.127 103.107 89.6439 112.916 89.6439 112.916C89.6439 112.916 85.978 132.922 82.4697 156.437C93.5637 165.702 107.843 171.279 123.428 171.279C134.449 171.279 144.819 168.49 153.871 163.58Z" fill="#F4C42B"/>
<path d="M153.099 125.514C155.597 130.278 158.326 136.422 158.21 140.354C158.069 145.16 155.756 155.63 154.236 162.054" stroke="white" stroke-width="1.45635" stroke-miterlimit="10" stroke-linecap="round" stroke-linejoin="round"/>
<path d="M110.056 104.36C113.209 103.776 116.652 103.444 120.327 103.53C125.132 103.642 129.405 104.741 133.093 106.3" stroke="white" stroke-width="1.45635" stroke-miterlimit="10" stroke-linecap="round" stroke-linejoin="round"/>
<path d="M102.592 144.993C120.119 123.822 107.473 106.14 96.7217 109.524C88.3043 112.172 75.7938 122.704 64.9014 133.117C69.7435 144.095 77.5815 153.452 87.3817 160.154C92.2491 156.022 97.7684 150.82 102.592 144.993Z" fill="#F4C42B"/>
<path d="M96.7214 109.524C107.473 106.14 120.119 123.822 102.592 144.993C99.8935 148.253 96.9773 151.317 94.0793 154.108C94.0793 154.108 91.5891 156.388 88.7695 158.87" stroke="white" stroke-width="1.45635" stroke-miterlimit="10" stroke-linecap="round" stroke-linejoin="round"/>
<path d="M125.027 65.0881C117.963 68.9318 114.234 90.5901 126.826 91.6483C139.419 92.7064 139.419 57.2576 125.027 65.0881Z" fill="white"/>
<path d="M116.985 82.548C116.985 82.548 119.419 76.4105 122.488 72.6011C122.488 72.6011 130.001 77.3629 136.456 75.0349C142.91 72.7069 146.508 60.3263 141.006 57.8925C135.503 55.4587 132.54 60.9612 132.54 60.9612C132.54 60.9612 108.837 54.0831 116.985 82.548Z" fill="#242424"/>
<path d="M119.63 80.6433C119.63 80.6433 117.62 72.707 111.271 74.2942C104.922 75.8815 110.742 87.9447 119.842 83.9236L119.63 80.6433Z" fill="white"/>
<path d="M117.176 82.5128C117.007 82.5128 116.847 82.4107 116.781 82.2437C116.764 82.1983 114.97 77.7238 111.204 77.1529C110.972 77.1182 110.813 76.9024 110.849 76.6714C110.883 76.4395 111.1 76.2816 111.33 76.3163C115.586 76.9607 117.491 81.7328 117.57 81.9358C117.655 82.1536 117.547 82.3987 117.33 82.4835C117.279 82.5033 117.227 82.5128 117.176 82.5128Z" fill="#242424"/>
<path d="M113.748 81.7424C113.52 81.7424 113.332 81.5613 113.325 81.3315C113.324 81.2741 113.299 79.898 114.332 78.2512C114.456 78.0533 114.718 77.9925 114.915 78.1177C115.113 78.2417 115.173 78.503 115.049 78.701C114.16 80.1171 114.172 81.2985 114.172 81.31C114.176 81.5432 113.991 81.7366 113.759 81.742C113.755 81.7424 113.752 81.7424 113.748 81.7424Z" fill="#242424"/>
<path d="M123.11 77.3408C123.11 77.3408 124.616 74.6147 126.683 75.7742C126.683 75.7742 126.769 75.1434 127.323 75.1543C127.878 75.1653 127.855 76.8997 127.855 76.8997C127.855 76.8997 125.324 76.5757 123.11 77.3408Z" fill="#242424"/>
<path d="M134.946 79.2055C134.946 79.2055 134.904 76.3578 133.228 77.0714C133.228 77.0714 133.21 76.5453 132.857 76.4701C132.246 76.34 132.047 77.9652 132.047 77.9652C132.047 77.9652 133.814 78.0772 134.946 79.2055Z" fill="#242424"/>
<path d="M127.122 80.8547C127.182 80.0587 126.71 79.3735 126.066 79.3242C125.422 79.2749 124.851 79.8802 124.79 80.6762C124.729 81.4723 125.202 82.1575 125.845 82.2068C126.489 82.2561 127.061 81.6508 127.122 80.8547Z" fill="#242424"/>
<path d="M126.252 80.5848C126.424 80.5848 126.563 80.4456 126.563 80.2739C126.563 80.1022 126.424 79.963 126.252 79.963C126.081 79.963 125.941 80.1022 125.941 80.2739C125.941 80.4456 126.081 80.5848 126.252 80.5848Z" fill="white"/>
<path d="M133.989 81.3805C134.05 80.5845 133.577 79.8992 132.933 79.8499C132.289 79.8007 131.718 80.406 131.657 81.202C131.596 81.998 132.069 82.6833 132.713 82.7326C133.356 82.7819 133.928 82.1765 133.989 81.3805Z" fill="#242424"/>
<path d="M133.119 81.1106C133.291 81.1106 133.43 80.9714 133.43 80.7997C133.43 80.628 133.291 80.4888 133.119 80.4888C132.948 80.4888 132.809 80.628 132.809 80.7997C132.809 80.9714 132.948 81.1106 133.119 81.1106Z" fill="white"/>
<path d="M129.794 85.9902C129.447 85.9902 129.123 85.9262 128.89 85.8489C128.668 85.7753 128.549 85.5364 128.622 85.3148C128.695 85.0937 128.934 84.9722 129.156 85.0449C129.168 85.0491 130.354 85.4256 130.713 84.6808C130.791 84.52 130.757 84.4596 130.744 84.4365C130.613 84.2075 129.985 84.0368 129.581 84.0012C129.351 83.9814 129.179 83.7805 129.195 83.5507L129.389 80.73C129.406 80.4964 129.609 80.3253 129.84 80.3365C130.074 80.3526 130.25 80.5547 130.234 80.7878L130.067 83.2171C130.522 83.3072 131.196 83.5205 131.479 84.0173C131.601 84.2319 131.7 84.5849 131.476 85.0495C131.123 85.7786 130.422 85.9902 129.794 85.9902Z" fill="#242424"/>
<path d="M129.644 88.5826C129.644 88.5826 126.436 90.4466 124.65 86.5189L129.644 88.5826Z" fill="white"/>
<path d="M205.859 53.485V56.9327" stroke="#3D3D3D" stroke-width="1.5" stroke-miterlimit="10" stroke-linecap="round" stroke-linejoin="round"/>
<path d="M205.859 63.6559V60.2081" stroke="#3D3D3D" stroke-width="1.5" stroke-miterlimit="10" stroke-linecap="round" stroke-linejoin="round"/>
<path d="M210.945 58.5704H207.497" stroke="#3D3D3D" stroke-width="1.5" stroke-miterlimit="10" stroke-linecap="round" stroke-linejoin="round"/>
<path d="M200.774 58.5704H204.222" stroke="#3D3D3D" stroke-width="1.5" stroke-miterlimit="10" stroke-linecap="round" stroke-linejoin="round"/>
<path d="M359.425 91.5314V94.8465" stroke="#3D3D3D" stroke-width="1.5" stroke-miterlimit="10" stroke-linecap="round" stroke-linejoin="round"/>
<path d="M359.425 101.311V97.996" stroke="#3D3D3D" stroke-width="1.5" stroke-miterlimit="10" stroke-linecap="round" stroke-linejoin="round"/>
<path d="M364.315 96.4213H361" stroke="#3D3D3D" stroke-width="1.5" stroke-miterlimit="10" stroke-linecap="round" stroke-linejoin="round"/>
<path d="M354.535 96.4213H357.85" stroke="#3D3D3D" stroke-width="1.5" stroke-miterlimit="10" stroke-linecap="round" stroke-linejoin="round"/>
<path d="M198.492 165.821V169.136" stroke="#3D3D3D" stroke-width="1.5" stroke-miterlimit="10" stroke-linecap="round" stroke-linejoin="round"/>
<path d="M198.492 175.601V172.286" stroke="#3D3D3D" stroke-width="1.5" stroke-miterlimit="10" stroke-linecap="round" stroke-linejoin="round"/>
<path d="M203.383 170.711H200.067" stroke="#3D3D3D" stroke-width="1.5" stroke-miterlimit="10" stroke-linecap="round" stroke-linejoin="round"/>
<path d="M193.603 170.711H196.918" stroke="#3D3D3D" stroke-width="1.5" stroke-miterlimit="10" stroke-linecap="round" stroke-linejoin="round"/>
<path d="M361.943 226.347C364.056 226.347 365.768 224.634 365.768 222.522C365.768 220.409 364.056 218.697 361.943 218.697C359.831 218.697 358.118 220.409 358.118 222.522C358.118 224.634 359.831 226.347 361.943 226.347Z" stroke="#3D3D3D" stroke-width="1.5" stroke-miterlimit="10" stroke-linecap="round" stroke-linejoin="round"/>
<path d="M314.014 138.012C316.237 138.012 318.039 136.211 318.039 133.988C318.039 131.766 316.237 129.964 314.014 129.964C311.792 129.964 309.99 131.766 309.99 133.988C309.99 136.211 311.792 138.012 314.014 138.012Z" fill="#E9F3FF"/>
<path d="M36.5545 188.263C39.2485 188.263 41.4323 186.079 41.4323 183.385C41.4323 180.691 39.2485 178.507 36.5545 178.507C33.8606 178.507 31.6768 180.691 31.6768 183.385C31.6768 186.079 33.8606 188.263 36.5545 188.263Z" fill="#E9F3FF"/>
<path d="M238.503 248.779C218.681 259.902 197.209 337.18 197.209 337.18C197.209 337.18 174.26 340.139 173.217 353.352C172.173 366.566 177.389 372.635 199.643 372.635C221.898 372.635 236.506 368.304 238.938 344.312C240.611 327.809 252.966 278.781 252.41 254.782C252.158 243.889 238.503 248.779 238.503 248.779Z" fill="#F4C42B"/>
<path d="M198.948 337.18C198.948 337.18 209.773 337.009 213.575 349.093" stroke="white" stroke-width="1.5" stroke-miterlimit="10" stroke-linecap="round" stroke-linejoin="round"/>
<path d="M184.778 343.268C177.042 343.79 174.347 344.659 174.347 344.659C174.347 344.659 167.566 350.744 169.131 358.22C170.696 365.696 173.999 366.914 173.999 366.914L187.039 368.217C187.039 368.217 191.385 363.002 191.733 355.743C192.081 348.484 184.778 343.268 184.778 343.268Z" fill="#3D3D3D"/>
<path d="M169.218 350.223C157.612 350.223 157.222 366.653 157.222 366.653H182.171C182.171 366.653 183.301 350.223 169.218 350.223Z" fill="#242424"/>
<path d="M173.431 345.442C164.896 345.587 158.178 349.602 156.258 354.082C154.338 358.562 156.578 363.576 159.138 362.402C159.138 362.402 160.524 363.896 162.551 362.616C162.551 362.616 164.684 364.216 166.178 363.042C167.671 361.869 167.991 357.389 169.805 354.509C169.805 354.509 167.884 361.976 170.231 363.256C172.578 364.536 173.965 358.242 175.885 355.256C177.805 352.269 176.738 359.736 176.098 362.402C175.458 365.069 183.031 363.469 183.351 356.109C183.671 348.749 179.725 345.335 173.431 345.442Z" fill="white"/>
<path d="M162.338 361.469C162.338 361.469 162.498 354.909 165.698 351.309" stroke="#242424" stroke-width="1.5" stroke-miterlimit="10" stroke-linecap="round" stroke-linejoin="round"/>
<path d="M158.738 360.829C158.738 360.829 157.858 354.509 161.218 350.829" stroke="#242424" stroke-width="1.5" stroke-miterlimit="10" stroke-linecap="round" stroke-linejoin="round"/>
<path d="M340.099 388.507H213.141C215.743 312.481 231.802 263.267 235.808 252.071C236.373 250.491 237.554 249.213 239.078 248.512C256.882 240.325 276.481 236.577 276.481 236.577C299.77 236.467 323.674 256.288 323.674 256.288C333.214 281.318 338.475 360.185 340.099 388.507Z" fill="#F4C42B"/>
<path d="M235.171 254.198C231.247 266.211 224.264 290.405 219.144 323.818C219.144 323.818 214.772 355.507 213.986 371.162" stroke="white" stroke-width="1.5" stroke-miterlimit="10" stroke-linecap="round" stroke-linejoin="round"/>
<path d="M278.744 229.464C274.888 229.288 270.149 230.918 267.694 231.893C266.702 232.287 266.079 233.274 266.134 234.34L266.746 246.166C266.746 246.166 271.679 252.321 279.889 251.858C288.098 251.395 292.049 246.181 292.049 246.181L293.305 234.706C293.42 233.657 292.872 232.637 291.917 232.187C289.875 231.226 285.717 229.782 278.744 229.464Z" fill="#3D3D3D"/>
<path d="M283.614 219.196L284.108 224.345L285.264 236.447C285.009 236.531 284.752 236.601 284.496 236.67C279.984 237.901 275.826 237.41 272.858 236.608L273.757 230.068L275.024 220.915L283.614 219.196Z" fill="white"/>
<path d="M283.614 219.196L284.108 224.345C282.166 226.436 278.986 228.648 273.757 230.068L275.024 220.915L283.614 219.196Z" fill="#242424"/>
<path d="M281.315 237.918C277.849 238.297 274.821 237.798 272.691 237.222C272.322 237.12 271.972 237.016 271.634 236.912C269.329 236.185 267.932 235.378 267.875 235.345C267.57 235.168 267.467 234.778 267.644 234.474C267.82 234.172 268.209 234.067 268.515 234.244C268.528 234.251 269.858 235.016 272.014 235.696C272.336 235.796 272.676 235.896 273.029 235.994C275.666 236.708 279.767 237.298 284.327 236.056C284.59 235.984 284.828 235.92 285.065 235.842C286.961 235.252 288.816 234.352 290.592 233.168C290.881 232.974 291.279 233.05 291.475 233.344C291.67 233.636 291.591 234.032 291.298 234.227C289.423 235.48 287.455 236.431 285.453 237.055C285.204 237.137 284.945 237.208 284.684 237.279C283.527 237.594 282.399 237.799 281.315 237.918Z" fill="#8E8E8E"/>
<path d="M257.365 348.702L250.846 349.484C250.846 349.484 236.502 343.616 232.721 344.138C228.939 344.659 216.682 355.221 215.508 358.872C214.335 362.524 216.682 366.957 216.682 366.957H243.543L247.325 364.871H262.32L257.365 348.702Z" fill="white"/>
<path d="M229.069 347.919C229.069 348.115 220.333 354.7 217.725 358.938" stroke="#242424" stroke-width="1.5" stroke-miterlimit="10" stroke-linecap="round" stroke-linejoin="round"/>
<path d="M232.46 351.049C232.46 351.049 223.593 358.286 221.376 361.872" stroke="#242424" stroke-width="1.5" stroke-miterlimit="10" stroke-linecap="round" stroke-linejoin="round"/>
<path d="M235.068 355.156C235.068 355.156 227.831 361.024 226.331 362.849" stroke="#242424" stroke-width="1.5" stroke-miterlimit="10" stroke-linecap="round" stroke-linejoin="round"/>
<path d="M276.971 368.492C276.971 368.492 263.816 368.306 259.914 367.592C256.012 366.878 252.885 348.652 257.127 344.183L274.011 341.439L276.971 368.492Z" fill="#3D3D3D"/>
<path d="M321.158 254.447C328.88 257.618 334.209 264.823 335.438 273.079C341.79 315.744 343.373 358.074 331.118 367.595C318.324 377.535 282.499 379.704 274.347 373.147C266.194 366.59 267.93 342.866 271.89 338.396C275.85 333.926 301.961 331.88 301.961 331.88C301.961 331.88 290.156 294.372 292.783 269.932C294.352 255.333 308.918 249.419 321.158 254.447Z" fill="#F4C42B"/>
<path d="M331.118 367.595C318.324 377.535 282.499 379.704 274.347 373.147C266.194 366.59 267.93 342.866 271.89 338.396C275.85 333.926 301.961 331.88 301.961 331.88C301.961 331.88 290.156 294.372 292.783 269.932C294.039 258.245 303.624 252.124 313.678 252.726" stroke="white" stroke-width="1.5" stroke-miterlimit="10" stroke-linecap="round" stroke-linejoin="round"/>
<path d="M314.014 347.543C303.478 336.548 301.961 331.88 301.961 331.88C301.961 331.88 300.816 338.426 305.193 348.495" stroke="white" stroke-width="1.5" stroke-miterlimit="10" stroke-linecap="round" stroke-linejoin="round"/>
<path d="M269.507 210.104C268.875 213.201 267.362 215.82 265.428 217.538L264.756 220.829L258.828 219.619C254.197 218.673 251.473 212.883 252.739 206.682C254.004 200.481 258.779 196.22 263.411 197.166L269.339 198.376L268.668 201.666C269.773 204.005 270.139 207.007 269.507 210.104Z" fill="#3D3D3D"/>
<path d="M256.323 217.393C256.323 217.393 249.412 227.368 259.192 227.368" stroke="#242424" stroke-width="1.5" stroke-miterlimit="10" stroke-linecap="round" stroke-linejoin="round"/>
<path d="M260.398 229.52C261.568 229.52 262.517 228.571 262.517 227.401C262.517 226.23 261.568 225.282 260.398 225.282C259.228 225.282 258.279 226.23 258.279 227.401C258.279 228.571 259.228 229.52 260.398 229.52Z" fill="#3D3D3D"/>
<path d="M275.432 211.313C276.698 205.112 273.97 199.319 269.339 198.374C264.708 197.429 259.928 201.69 258.663 207.89C257.397 214.091 260.125 219.884 264.756 220.829C269.387 221.774 274.167 217.514 275.432 211.313Z" fill="#242424"/>
<path d="M272.813 185.566C259.824 188.184 259.635 218.772 261.982 223.269C264.328 227.765 282.637 223.444 285.452 221.629C288.268 219.814 290.781 208.874 291.054 201.83C291.327 194.786 287.9 182.525 272.813 185.566Z" fill="white"/>
<path d="M287.794 210.186L287.41 205.88C287.41 205.88 282.759 202.302 283.521 197.35C283.521 197.35 266.945 206.379 254.14 198.216C254.14 198.216 256.208 194.859 258.663 193.46C258.663 193.46 247.384 185.287 248.03 171.756C248.267 166.774 261.412 171.684 265.945 177.361C265.945 177.361 261.222 164.644 267.03 157.07C268.704 154.888 277.927 164.487 281.147 174.047C281.147 174.047 281.909 166.176 284.898 163.029C285.911 161.961 290.853 168.985 292.179 180.318C292.179 180.318 301.345 184.619 305.31 193.054C309.276 201.489 305.408 213.824 288.06 216.591L287.794 210.186Z" fill="#242424"/>
<path d="M287.795 210.186C287.795 210.186 291.802 199.922 298.097 202.625C304.392 205.327 298.014 217.763 286.933 217.41L287.795 210.186Z" fill="white"/>
<path d="M290.149 215.003C290.119 215.006 290.089 215.008 290.059 215.007C289.707 214.996 289.431 214.702 289.442 214.351C289.444 214.268 289.775 206.031 296.587 205.193C296.589 205.192 296.593 205.192 296.596 205.192C296.942 205.154 297.254 205.4 297.297 205.747C297.34 206.096 297.092 206.413 296.743 206.457C291.003 207.163 290.717 214.317 290.714 214.389C290.705 214.711 290.459 214.969 290.149 215.003Z" fill="#242424"/>
<path d="M294.563 213.26C294.258 213.293 293.964 213.1 293.88 212.793C293.874 212.766 293.129 210.067 291.839 208.579C291.609 208.313 291.637 207.911 291.904 207.68C292.168 207.451 292.571 207.477 292.801 207.744C294.285 209.455 295.077 212.339 295.11 212.46C295.202 212.8 295.001 213.149 294.661 213.241C294.63 213.25 294.597 213.256 294.563 213.26Z" fill="#242424"/>
<path d="M269.552 214.172C269.509 214.177 269.464 214.178 269.418 214.173C269.298 214.161 266.474 213.846 265.766 211.386C265.691 211.122 265.791 210.84 266.017 210.684C267.995 209.323 269.703 205.614 269.721 205.576C269.867 205.254 270.247 205.115 270.564 205.261C270.884 205.407 271.026 205.785 270.879 206.105C270.809 206.26 269.216 209.715 267.145 211.426C267.802 212.7 269.531 212.904 269.55 212.906C269.898 212.944 270.152 213.257 270.115 213.606C270.083 213.909 269.844 214.14 269.552 214.172Z" fill="#242424"/>
<path d="M273.397 218.837C269.744 219.236 267.283 217.99 267.158 217.925C266.846 217.764 266.726 217.381 266.887 217.069C267.047 216.756 267.43 216.634 267.744 216.794C267.776 216.811 271.048 218.447 275.525 217.108C275.866 217.002 276.216 217.197 276.318 217.535C276.419 217.872 276.227 218.227 275.891 218.328C275.012 218.591 274.178 218.751 273.397 218.837Z" fill="#242424"/>
<path d="M275.071 201.991C275.071 201.991 275.645 199.48 276.344 199.1C277.043 198.72 276.932 199.944 276.932 199.944C276.932 199.944 282.109 199.714 281.931 204.855C281.931 204.855 280.136 201.745 275.071 201.991Z" fill="#242424"/>
<path d="M269.164 200.995C269.164 200.995 269.696 198.469 269.374 197.813C269.053 197.158 268.682 198.313 268.682 198.313C268.682 198.313 265.362 195.794 263.616 200.52C263.616 200.52 265.923 198.511 269.164 200.995Z" fill="#242424"/>
<path d="M277.827 207.727C278.056 206.391 277.372 205.159 276.3 204.975C275.227 204.791 274.171 205.724 273.942 207.06C273.712 208.396 274.396 209.628 275.469 209.812C276.541 209.997 277.597 209.063 277.827 207.727Z" fill="#242424"/>
<path d="M275.128 207.386C275.503 207.386 275.806 207.082 275.806 206.707C275.806 206.332 275.503 206.029 275.128 206.029C274.753 206.029 274.449 206.332 274.449 206.707C274.449 207.082 274.753 207.386 275.128 207.386Z" fill="white"/>
<path d="M267.669 205.585C267.899 204.249 267.215 203.017 266.142 202.832C265.07 202.648 264.014 203.582 263.785 204.918C263.555 206.254 264.239 207.486 265.311 207.67C266.384 207.854 267.44 206.921 267.669 205.585Z" fill="#242424"/>
<path d="M264.971 205.243C265.345 205.243 265.649 204.94 265.649 204.565C265.649 204.19 265.345 203.886 264.971 203.886C264.596 203.886 264.292 204.19 264.292 204.565C264.292 204.94 264.596 205.243 264.971 205.243Z" fill="white"/>
<path d="M297.612 202.964L292.921 201.53L291.619 201.135C297.612 188.528 292.175 180.319 292.175 180.319L293.221 179.902C293.221 179.902 293.221 179.902 293.229 179.909L299.616 184.446C302.66 192.618 297.612 202.964 297.612 202.964Z" fill="#F4C42B"/>
<path d="M292.921 201.53L291.619 201.135C297.612 188.528 292.175 180.319 292.175 180.319L293.222 179.902C293.222 179.902 293.222 179.902 293.229 179.909C293.463 180.239 299.024 188.302 292.921 201.53Z" fill="#3D3D3D"/>
<path d="M297.888 213.56C297.255 216.657 295.743 219.276 293.809 220.994L293.137 224.285L287.209 223.075C282.578 222.13 279.854 216.339 281.12 210.138C282.385 203.937 287.16 199.677 291.791 200.622L297.72 201.832L297.048 205.123C298.154 207.462 298.52 210.463 297.888 213.56Z" fill="#3D3D3D"/>
<path d="M303.813 214.77C305.079 208.569 302.351 202.776 297.72 201.831C293.089 200.885 288.309 205.146 287.044 211.347C285.778 217.548 288.506 223.341 293.137 224.286C297.768 225.231 302.548 220.97 303.813 214.77Z" fill="#F4C42B"/>
<path d="M383.85 366.392H62.9023V395.601H383.85V366.392Z" fill="#242424"/>
<path d="M225.964 317.541C226.85 316.12 227.166 314.284 226.713 312.274L204.276 212.715C203.262 208.214 198.79 204.565 194.289 204.565H81.392C78.7916 204.565 76.7565 205.787 75.6915 207.683L68.3086 214.745L77.0075 221.276L97.5157 312.274C98.5302 316.776 103.002 320.425 107.503 320.425H209.079L217.177 326.504L224.192 319.35C224.912 318.878 225.51 318.268 225.96 317.548L225.966 317.542L225.964 317.541Z" fill="#3D3D3D"/>
<path d="M212.074 328.751H99.177C94.6756 328.751 90.2041 325.102 89.1896 320.6L66.7521 221.041C65.7377 216.54 68.5644 212.891 73.0658 212.891H185.962C190.464 212.891 194.935 216.54 195.95 221.041L218.387 320.6C219.402 325.102 216.575 328.751 212.074 328.751Z" fill="#F4C42B"/>
<path d="M194.96 309.864C195.545 308.924 195.754 307.71 195.455 306.381L180.619 240.551C179.948 237.574 176.991 235.161 174.015 235.161H99.3649C97.6455 235.161 96.2998 235.969 95.5956 237.223L90.7139 241.893L96.4658 246.211L110.026 306.381C110.697 309.358 113.654 311.771 116.63 311.771H183.795L189.149 315.79L193.788 311.06C194.264 310.748 194.659 310.345 194.957 309.868L194.96 309.865L194.96 309.864Z" fill="#3D3D3D"/>
<path d="M185.775 317.276H111.125C108.149 317.276 105.192 314.863 104.521 311.887L89.6852 246.056C89.0144 243.08 90.8835 240.667 93.8599 240.667H168.51C171.486 240.667 174.443 243.08 175.114 246.056L189.95 311.887C190.621 314.863 188.752 317.276 185.775 317.276Z" fill="#F4C42B"/>
<path d="M185.776 317.276H111.126C108.149 317.276 105.193 314.863 104.522 311.887L89.6855 246.056" stroke="white" stroke-width="1.5" stroke-miterlimit="10" stroke-linecap="round" stroke-linejoin="round"/>
<path d="M124.193 362.731C124.193 364.758 122.554 366.389 120.535 366.389H97.1579C95.8629 366.389 94.6703 365.716 94.0118 364.597C93.3533 363.485 93.324 362.116 93.946 360.982L123.842 306.297H148.009L119.159 359.073H120.535C122.554 359.073 124.193 360.712 124.193 362.731Z" fill="#F4C42B"/>
<path d="M112.01 327.941L123.842 306.297" stroke="white" stroke-width="1.5" stroke-miterlimit="10" stroke-linecap="round" stroke-linejoin="round"/>
<path d="M148.573 292.154L148.009 306.297H123.842L121.64 296.53C121.194 294.562 122.43 292.601 124.406 292.154H148.573Z" fill="white"/>
<path d="M145.805 296.531L148.005 306.295L118.115 360.979C117.493 362.115 117.517 363.486 118.178 364.6C118.839 365.714 120.029 366.392 121.325 366.392H153.707C155.727 366.392 157.365 364.754 157.365 362.734C157.365 360.713 155.727 359.075 153.707 359.075L127.493 359.075L155.088 308.593C155.515 307.811 155.642 306.903 155.446 306.034L152.942 294.923C152.498 292.952 150.54 291.714 148.569 292.158C146.598 292.602 145.36 294.56 145.805 296.531L145.805 296.531Z" fill="#3D3D3D"/>
<path d="M93.4985 149.519C93.4985 149.519 68.1445 176.764 73.6335 226.347C79.1224 275.93 155.494 273.051 179.438 238.05C203.382 203.049 165.437 191.922 144.769 214.176C124.102 236.431 123.961 278.496 154.022 299.712C184.084 320.927 251.399 306.958 265.727 264.131" stroke="#242424" stroke-width="2" stroke-miterlimit="10" stroke-linecap="round" stroke-linejoin="round" stroke-dasharray="6 6"/>
</svg>
