<svg width="24" height="24" viewBox="0 0 24 24" fill="none" xmlns="http://www.w3.org/2000/svg">
<path d="M11.9984 0.799805L12.352 0.446251C12.2582 0.352483 12.131 0.299805 11.9984 0.299805C11.8658 0.299805 11.7387 0.352483 11.6449 0.446251L11.9984 0.799805ZM2.39844 10.3998L2.04488 10.0463L1.89844 10.1927V10.3998H2.39844ZM21.5984 10.3998H22.0984V10.1927L21.952 10.0463L21.5984 10.3998ZM21.952 10.0463L12.352 0.446251L11.6449 1.15336L21.2449 10.7534L21.952 10.0463ZM11.6449 0.446251L2.04488 10.0463L2.75199 10.7534L12.352 1.15336L11.6449 0.446251ZM22.0984 21.5998V10.3998H21.0984V21.5998H22.0984ZM1.89844 10.3998V21.5998H2.89844V10.3998H1.89844ZM3.99844 23.6998H19.9984V22.6998H3.99844V23.6998ZM21.0984 21.5998C21.0984 22.2073 20.6059 22.6998 19.9984 22.6998V23.6998C21.1582 23.6998 22.0984 22.7596 22.0984 21.5998H21.0984ZM1.89844 21.5998C1.89844 22.7596 2.83864 23.6998 3.99844 23.6998V22.6998C3.39092 22.6998 2.89844 22.2073 2.89844 21.5998H1.89844Z" fill="white" fill-opacity="0.3"/>
</svg>
