<svg width="24" height="24" viewBox="0 0 24 24" fill="none" xmlns="http://www.w3.org/2000/svg">
<path d="M19.9997 8.7998V13.5998C19.9997 15.677 19.326 17.6981 18.0797 19.3598L17.1197 20.6398C15.911 22.2514 14.0142 23.1998 11.9997 23.1998C9.98527 23.1998 8.08838 22.2514 6.87972 20.6398L5.91971 19.3598C4.67342 17.6981 3.99972 15.677 3.99972 13.5998V8.7998M19.9997 8.7998C19.9997 4.38153 16.418 0.799805 11.9997 0.799805C7.58144 0.799805 3.99972 4.38153 3.99972 8.7998M19.9997 8.7998L18.2056 7.00569C17.3054 6.10552 16.0845 5.5998 14.8115 5.5998H9.18794C7.9149 5.5998 6.694 6.10552 5.79383 7.00569L3.99972 8.7998M7.99971 13.5998H9.59971M14.3997 13.5998H15.9997M9.59971 10.3998H3.99972C2.37427 10.3998 1.1816 11.9274 1.57583 13.5043L1.81763 14.4715C2.15973 15.8398 3.38922 16.7998 4.79972 16.7998M14.3997 10.3998H19.9997C21.6252 10.3998 22.8178 11.9274 22.4236 13.5043L22.1818 14.4715C21.8397 15.8398 20.6102 16.7998 19.1997 16.7998M4.79972 17.5998L6.13958 18.4037C7.88024 19.4481 9.872 19.9998 11.9019 19.9998H12.0975C14.1274 19.9998 16.1192 19.4481 17.8598 18.4037L19.1997 17.5998M8.79971 19.1998L10.3997 17.5998H13.5997L15.1997 19.1998" stroke="white" stroke-opacity="0.3"/>
</svg>
