<svg width="24" height="24" viewBox="0 0 24 24" fill="none" xmlns="http://www.w3.org/2000/svg">
<path d="M7.55154 0.799805H4.00078C2.23347 0.799805 0.800781 2.23249 0.800781 3.9998V7.1998C0.800781 16.0364 7.96423 23.1998 16.8008 23.1998H20.0008C21.7681 23.1998 23.2008 21.7671 23.2008 19.9998V17.7887C23.2008 17.1826 22.8584 16.6286 22.3163 16.3576L18.4508 14.4248C17.58 13.9894 16.5253 14.4262 16.2174 15.35L15.741 16.7792C15.4324 17.705 14.4827 18.2562 13.5257 18.0648C9.69565 17.2988 6.70181 14.3049 5.93579 10.4749C5.74441 9.51792 6.29554 8.56822 7.22136 8.25961L8.99516 7.66834C9.78832 7.40396 10.2442 6.57349 10.0414 5.76239L9.10377 2.01175C8.9257 1.29948 8.28573 0.799805 7.55154 0.799805Z" stroke="white" stroke-opacity="0.3"/>
</svg>
