<svg width="24" height="24" viewBox="0 0 24 24" fill="none" xmlns="http://www.w3.org/2000/svg">
<path d="M2.4 3.9998V3.4998C2.16166 3.4998 1.95645 3.66803 1.90971 3.90175L2.4 3.9998ZM21.6 3.9998L22.0903 3.90175C22.0435 3.66803 21.8383 3.4998 21.6 3.4998V3.9998ZM23.2 11.9998V12.4998C23.3498 12.4998 23.4917 12.4326 23.5867 12.3168C23.6816 12.201 23.7197 12.0486 23.6903 11.9017L23.2 11.9998ZM0.8 11.9998L0.30971 11.9017C0.280332 12.0486 0.31836 12.201 0.413329 12.3168C0.508298 12.4326 0.650203 12.4998 0.8 12.4998V11.9998ZM5.6 16.7998H5.1V17.2998H5.6V16.7998ZM18.4 16.7998V17.2998H18.9V16.7998H18.4ZM0 23.6998H24V22.6998H0V23.6998ZM1.9 11.9998V23.1998H2.9V11.9998H1.9ZM21.1 11.9998V23.1998H22.1V11.9998H21.1ZM2.4 4.4998H21.6V3.4998H2.4V4.4998ZM21.1097 4.09786L22.7097 12.0979L23.6903 11.9017L22.0903 3.90175L21.1097 4.09786ZM23.2 11.4998H0.8V12.4998H23.2V11.4998ZM1.29029 12.0979L2.89029 4.09786L1.90971 3.90175L0.30971 11.9017L1.29029 12.0979ZM1.6 1.2998H22.4V0.299805H1.6V1.2998ZM5.1 11.9998V16.7998H6.1V11.9998H5.1ZM5.6 17.2998H18.4V16.2998H5.6V17.2998ZM18.9 16.7998V11.9998H17.9V16.7998H18.9Z" fill="white" fill-opacity="0.3"/>
</svg>
